<?xml version="1.0" encoding="UTF-8" standalone="no"?>
<!DOCTYPE svg PUBLIC "-//W3C//DTD SVG 1.1//EN" "http://www.w3.org/Graphics/SVG/1.1/DTD/svg11.dtd">
<svg width="100%" height="100%" viewBox="0 0 1743 449" version="1.1" xmlns="http://www.w3.org/2000/svg" xmlns:xlink="http://www.w3.org/1999/xlink" xml:space="preserve" xmlns:serif="http://www.serif.com/" style="fill-rule:evenodd;clip-rule:evenodd;stroke-linejoin:round;stroke-miterlimit:2;">
    <g id="Artboard1" transform="matrix(0.951536,0,0,1,-248.282,-168.908)">
        <rect x="260.927" y="168.908" width="1831.56" height="448.482" style="fill:none;"/>
        <g transform="matrix(0.667813,0,0,0.635448,202.595,-78.4172)">
            <g transform="matrix(539.143,0,0,539.143,161.357,949.824)">
                <path d="M0.213,-0.241C0.213,-0.136 0.188,-0.098 0.128,-0.098C0.087,-0.098 0.045,-0.122 0.019,-0.143L0.019,-0.027C0.051,-0.011 0.1,0.01 0.154,0.01C0.241,0.01 0.324,-0.033 0.324,-0.215L0.324,-0.7L0.213,-0.7L0.213,-0.241Z" style="fill:white;fill-rule:nonzero;"/>
            </g>
            <g transform="matrix(539.143,0,0,539.143,354.37,949.824)">
                <path d="M0.039,-0L0.138,-0L0.138,-0.5L0.039,-0.5L0.039,-0ZM0.023,-0.616C0.023,-0.573 0.05,-0.546 0.088,-0.546C0.127,-0.546 0.154,-0.573 0.154,-0.616C0.154,-0.659 0.127,-0.686 0.088,-0.686C0.05,-0.686 0.023,-0.659 0.023,-0.616Z" style="fill:white;fill-rule:nonzero;"/>
            </g>
            <g transform="matrix(539.143,0,0,539.143,450.877,949.824)">
                <path d="M0.294,-0.285L0.294,-0L0.393,-0L0.393,-0.233C0.393,-0.35 0.426,-0.418 0.485,-0.418C0.536,-0.418 0.556,-0.368 0.556,-0.284L0.556,-0L0.655,-0L0.655,-0.305C0.655,-0.433 0.609,-0.51 0.518,-0.51C0.461,-0.51 0.409,-0.479 0.377,-0.416C0.357,-0.477 0.316,-0.51 0.256,-0.51C0.207,-0.51 0.162,-0.485 0.131,-0.438L0.131,-0.5L0.032,-0.5L0.032,-0L0.131,-0L0.131,-0.232C0.131,-0.349 0.164,-0.418 0.223,-0.418C0.273,-0.418 0.294,-0.369 0.294,-0.285Z" style="fill:white;fill-rule:nonzero;"/>
            </g>
            <g transform="matrix(539.143,0,0,539.143,819.112,949.824)">
                <path d="M0.039,-0L0.138,-0L0.138,-0.5L0.039,-0.5L0.039,-0ZM0.023,-0.616C0.023,-0.573 0.05,-0.546 0.088,-0.546C0.127,-0.546 0.154,-0.573 0.154,-0.616C0.154,-0.659 0.127,-0.686 0.088,-0.686C0.05,-0.686 0.023,-0.659 0.023,-0.616Z" style="fill:white;fill-rule:nonzero;"/>
            </g>
            <g transform="matrix(539.143,0,0,539.143,1000.8,949.824)">
                <path d="M0.017,-0L0.123,-0L0.143,-0.107L0.322,-0.107L0.342,-0L0.449,-0L0.314,-0.7L0.151,-0.7L0.017,-0ZM0.161,-0.201L0.233,-0.581L0.304,-0.201L0.161,-0.201Z" style="fill:white;fill-rule:nonzero;"/>
            </g>
            <g transform="matrix(539.143,0,0,539.143,1243.96,949.824)">
                <path d="M0.201,0.01C0.25,0.01 0.289,-0.014 0.317,-0.053L0.317,-0L0.416,-0L0.416,-0.75L0.317,-0.75L0.317,-0.449C0.289,-0.487 0.251,-0.51 0.201,-0.51C0.09,-0.51 0.016,-0.404 0.016,-0.25C0.016,-0.096 0.09,0.01 0.201,0.01ZM0.118,-0.25C0.118,-0.352 0.161,-0.421 0.218,-0.421C0.276,-0.421 0.317,-0.349 0.317,-0.251C0.317,-0.149 0.279,-0.079 0.218,-0.079C0.161,-0.079 0.118,-0.145 0.118,-0.25Z" style="fill:white;fill-rule:nonzero;"/>
            </g>
            <g transform="matrix(539.143,0,0,539.143,1485.49,949.824)">
                <path d="M0.016,-0.25C0.016,-0.09 0.1,0.01 0.238,0.01C0.295,0.01 0.343,-0.009 0.373,-0.037L0.373,-0.143C0.347,-0.108 0.309,-0.083 0.254,-0.083C0.179,-0.083 0.127,-0.142 0.122,-0.23L0.404,-0.23C0.407,-0.403 0.337,-0.51 0.212,-0.51C0.093,-0.51 0.016,-0.41 0.016,-0.25ZM0.122,-0.292C0.131,-0.365 0.162,-0.417 0.212,-0.417C0.263,-0.417 0.294,-0.369 0.302,-0.292L0.122,-0.292Z" style="fill:white;fill-rule:nonzero;"/>
            </g>
            <g transform="matrix(539.143,0,0,539.143,1709.78,949.824)">
                <path d="M0.294,-0.285L0.294,-0L0.393,-0L0.393,-0.233C0.393,-0.35 0.426,-0.418 0.485,-0.418C0.536,-0.418 0.556,-0.368 0.556,-0.284L0.556,-0L0.655,-0L0.655,-0.305C0.655,-0.433 0.609,-0.51 0.518,-0.51C0.461,-0.51 0.409,-0.479 0.377,-0.416C0.357,-0.477 0.316,-0.51 0.256,-0.51C0.207,-0.51 0.162,-0.485 0.131,-0.438L0.131,-0.5L0.032,-0.5L0.032,-0L0.131,-0L0.131,-0.232C0.131,-0.349 0.164,-0.418 0.223,-0.418C0.273,-0.418 0.294,-0.369 0.294,-0.285Z" style="fill:white;fill-rule:nonzero;"/>
            </g>
            <g transform="matrix(539.143,0,0,539.143,2079.63,949.824)">
                <path d="M0.219,0.01C0.339,0.01 0.423,-0.083 0.423,-0.25C0.423,-0.413 0.342,-0.51 0.219,-0.51C0.097,-0.51 0.016,-0.413 0.016,-0.25C0.016,-0.083 0.1,0.01 0.219,0.01ZM0.118,-0.25C0.118,-0.339 0.151,-0.419 0.219,-0.419C0.288,-0.419 0.32,-0.339 0.32,-0.25C0.32,-0.154 0.282,-0.081 0.219,-0.081C0.156,-0.081 0.118,-0.154 0.118,-0.25Z" style="fill:white;fill-rule:nonzero;"/>
            </g>
            <g transform="matrix(539.143,0,0,539.143,2315.77,949.824)">
                <rect x="0.032" y="-0.75" width="0.099" height="0.75" style="fill:white;fill-rule:nonzero;"/>
            </g>
            <g transform="matrix(539.143,0,0,539.143,2403.65,949.824)">
                <path d="M0.201,0.01C0.252,0.01 0.29,-0.017 0.317,-0.059L0.317,-0L0.413,-0L0.413,-0.5L0.317,-0.5L0.317,-0.442C0.29,-0.484 0.252,-0.51 0.201,-0.51C0.09,-0.51 0.016,-0.404 0.016,-0.25C0.016,-0.096 0.09,0.01 0.201,0.01ZM0.118,-0.25C0.118,-0.355 0.16,-0.421 0.217,-0.421C0.275,-0.421 0.317,-0.353 0.317,-0.251C0.317,-0.144 0.276,-0.079 0.217,-0.079C0.16,-0.079 0.118,-0.145 0.118,-0.25Z" style="fill:white;fill-rule:nonzero;"/>
            </g>
            <g transform="matrix(539.143,0,0,539.143,2644.11,949.824)">
                <path d="M0.107,0.01C0.147,0.01 0.175,-0.018 0.175,-0.063C0.175,-0.107 0.147,-0.135 0.107,-0.135C0.066,-0.135 0.039,-0.107 0.039,-0.063C0.039,-0.018 0.066,0.01 0.107,0.01Z" style="fill:rgb(255,0,0);fill-rule:nonzero;"/>
            </g>
        </g>
    </g>
</svg>
