<?xml version="1.0" encoding="UTF-8" standalone="no"?><!DOCTYPE svg PUBLIC "-//W3C//DTD SVG 1.1//EN" "http://www.w3.org/Graphics/SVG/1.1/DTD/svg11.dtd"><svg width="100%" height="100%" viewBox="0 0 1743 449" version="1.1" xmlns="http://www.w3.org/2000/svg" xmlns:xlink="http://www.w3.org/1999/xlink" xml:space="preserve" xmlns:serif="http://www.serif.com/" style="fill-rule:evenodd;clip-rule:evenodd;stroke-linejoin:round;stroke-miterlimit:2;"><rect id="Artboard1" x="0" y="0" width="1742.8" height="448.482" style="fill:none;"/><g transform="matrix(0.635448,0,0,0.635448,-55.5054,-247.325)"><g transform="matrix(539.143,0,0,539.143,161.357,949.824)"><path d="M0.213,-0.241c0,0.105 -0.025,0.143 -0.085,0.143c-0.041,-0 -0.083,-0.024 -0.109,-0.045l-0,0.116c0.032,0.016 0.081,0.037 0.135,0.037c0.087,-0 0.17,-0.043 0.17,-0.225l-0,-0.485l-0.111,-0l-0,0.459Z" style="fill-rule:nonzero;"/></g><g transform="matrix(539.143,0,0,539.143,354.37,949.824)"><path d="M0.039,-0l0.099,-0l0,-0.5l-0.099,0l-0,0.5Zm-0.016,-0.616c-0,0.043 0.027,0.07 0.065,0.07c0.039,0 0.066,-0.027 0.066,-0.07c-0,-0.043 -0.027,-0.07 -0.066,-0.07c-0.038,0 -0.065,0.027 -0.065,0.07Z" style="fill-rule:nonzero;"/></g><g transform="matrix(539.143,0,0,539.143,450.877,949.824)"><path d="M0.294,-0.285l0,0.285l0.099,-0l0,-0.233c0,-0.117 0.033,-0.185 0.092,-0.185c0.051,0 0.071,0.05 0.071,0.134l0,0.284l0.099,-0l0,-0.305c0,-0.128 -0.046,-0.205 -0.137,-0.205c-0.057,0 -0.109,0.031 -0.141,0.094c-0.02,-0.061 -0.061,-0.094 -0.121,-0.094c-0.049,0 -0.094,0.025 -0.125,0.072l0,-0.062l-0.099,0l0,0.5l0.099,-0l0,-0.232c0,-0.117 0.033,-0.186 0.092,-0.186c0.05,0 0.071,0.049 0.071,0.133Z" style="fill-rule:nonzero;"/></g><g transform="matrix(539.143,0,0,539.143,819.112,949.824)"><path d="M0.039,-0l0.099,-0l0,-0.5l-0.099,0l-0,0.5Zm-0.016,-0.616c-0,0.043 0.027,0.07 0.065,0.07c0.039,0 0.066,-0.027 0.066,-0.07c-0,-0.043 -0.027,-0.07 -0.066,-0.07c-0.038,0 -0.065,0.027 -0.065,0.07Z" style="fill-rule:nonzero;"/></g><g transform="matrix(539.143,0,0,539.143,1000.8,949.824)"><path d="M0.017,-0l0.106,-0l0.02,-0.107l0.179,0l0.02,0.107l0.107,-0l-0.135,-0.7l-0.163,0l-0.134,0.7Zm0.144,-0.201l0.072,-0.38l0.071,0.38l-0.143,-0Z" style="fill-rule:nonzero;"/></g><g transform="matrix(539.143,0,0,539.143,1243.96,949.824)"><path d="M0.201,0.01c0.049,0 0.088,-0.024 0.116,-0.063l0,0.053l0.099,-0l0,-0.75l-0.099,0l-0,0.301c-0.028,-0.038 -0.066,-0.061 -0.116,-0.061c-0.111,0 -0.185,0.106 -0.185,0.26c-0,0.154 0.074,0.26 0.185,0.26Zm-0.083,-0.26c-0,-0.102 0.043,-0.171 0.1,-0.171c0.058,0 0.099,0.072 0.099,0.17c-0,0.102 -0.038,0.172 -0.099,0.172c-0.057,-0 -0.1,-0.066 -0.1,-0.171Z" style="fill-rule:nonzero;"/></g><g transform="matrix(539.143,0,0,539.143,1485.49,949.824)"><path d="M0.016,-0.25c0,0.16 0.084,0.26 0.222,0.26c0.057,-0 0.105,-0.019 0.135,-0.047l0,-0.106c-0.026,0.035 -0.064,0.06 -0.119,0.06c-0.075,-0 -0.127,-0.059 -0.132,-0.147l0.282,-0c0.003,-0.173 -0.067,-0.28 -0.192,-0.28c-0.119,0 -0.196,0.1 -0.196,0.26Zm0.106,-0.042c0.009,-0.073 0.04,-0.125 0.09,-0.125c0.051,0 0.082,0.048 0.09,0.125l-0.18,0Z" style="fill-rule:nonzero;"/></g><g transform="matrix(539.143,0,0,539.143,1709.78,949.824)"><path d="M0.294,-0.285l0,0.285l0.099,-0l0,-0.233c0,-0.117 0.033,-0.185 0.092,-0.185c0.051,0 0.071,0.05 0.071,0.134l0,0.284l0.099,-0l0,-0.305c0,-0.128 -0.046,-0.205 -0.137,-0.205c-0.057,0 -0.109,0.031 -0.141,0.094c-0.02,-0.061 -0.061,-0.094 -0.121,-0.094c-0.049,0 -0.094,0.025 -0.125,0.072l0,-0.062l-0.099,0l0,0.5l0.099,-0l0,-0.232c0,-0.117 0.033,-0.186 0.092,-0.186c0.05,0 0.071,0.049 0.071,0.133Z" style="fill-rule:nonzero;"/></g><g transform="matrix(539.143,0,0,539.143,2079.63,949.824)"><path d="M0.219,0.01c0.12,0 0.204,-0.093 0.204,-0.26c-0,-0.163 -0.081,-0.26 -0.204,-0.26c-0.122,0 -0.203,0.097 -0.203,0.26c-0,0.167 0.084,0.26 0.203,0.26Zm-0.101,-0.26c-0,-0.089 0.033,-0.169 0.101,-0.169c0.069,0 0.101,0.08 0.101,0.169c-0,0.096 -0.038,0.169 -0.101,0.169c-0.063,-0 -0.101,-0.073 -0.101,-0.169Z" style="fill-rule:nonzero;"/></g><g transform="matrix(539.143,0,0,539.143,2315.77,949.824)"><rect x="0.032" y="-0.75" width="0.099" height="0.75" style="fill-rule:nonzero;"/></g><g transform="matrix(539.143,0,0,539.143,2403.65,949.824)"><path d="M0.201,0.01c0.051,0 0.089,-0.027 0.116,-0.069l0,0.059l0.096,-0l0,-0.5l-0.096,0l-0,0.058c-0.027,-0.042 -0.065,-0.068 -0.116,-0.068c-0.111,0 -0.185,0.106 -0.185,0.26c-0,0.154 0.074,0.26 0.185,0.26Zm-0.083,-0.26c-0,-0.105 0.042,-0.171 0.099,-0.171c0.058,0 0.1,0.068 0.1,0.17c-0,0.107 -0.041,0.172 -0.1,0.172c-0.057,-0 -0.099,-0.066 -0.099,-0.171Z" style="fill-rule:nonzero;"/></g><g transform="matrix(539.143,0,0,539.143,2644.11,949.824)"><path d="M0.107,0.01c0.04,0 0.068,-0.028 0.068,-0.073c0,-0.044 -0.028,-0.072 -0.068,-0.072c-0.041,0 -0.068,0.028 -0.068,0.072c0,0.045 0.027,0.073 0.068,0.073Z" style="fill:#f00;fill-rule:nonzero;"/></g></g></svg>